<svg width="64" height="64" viewBox="0 0 64 64" fill="none" xmlns="http://www.w3.org/2000/svg">
<rect width="64" height="64" rx="10" fill="#673AB7" fill-opacity="0.4"/>
<path d="M51.5625 24.875C50.8606 24.875 50.2916 24.306 50.2916 23.6042V19.7917H41.3958C40.6939 19.7917 40.125 19.2227 40.125 18.5208V9.62499H18.5208C16.4152 9.62499 14.7083 11.3319 14.7083 13.4375V51.5625C14.7083 53.6681 16.4152 55.375 18.5208 55.375H46.4791C48.5847 55.375 50.2916 53.6681 50.2916 51.5625V46.4792C50.2916 45.7773 50.8606 45.2083 51.5625 45.2083C52.2643 45.2083 52.8333 45.7773 52.8333 46.4792V51.5625C52.8333 55.0718 49.9884 57.9167 46.4791 57.9167H18.5208C15.0115 57.9167 12.1666 55.0718 12.1666 51.5625V13.4375C12.1666 9.92819 15.0115 7.08333 18.5208 7.08333H41.3247C41.6621 7.06193 42.0133 7.17442 42.2944 7.45555L52.4611 17.6222C52.7422 17.9033 52.8547 18.2545 52.8333 18.5919V23.6042C52.8333 24.306 52.2643 24.875 51.5625 24.875ZM48.4944 35.0417H28.6522C27.9503 35.0417 27.3814 34.4727 27.3814 33.7708C27.3814 33.069 27.9503 32.5 28.6522 32.5H48.4944L43.0388 27.0444C42.5426 26.5482 42.5426 25.7435 43.0388 25.2472C43.5351 24.7509 44.3398 24.7509 44.8361 25.2472L52.4611 32.8722C52.9574 33.3685 52.9574 34.1732 52.4611 34.6694L44.8361 42.2944C44.3398 42.7907 43.5351 42.7907 43.0388 42.2944C42.5426 41.7982 42.5426 40.9935 43.0388 40.4972L48.4944 35.0417ZM42.6666 11.4222V17.25H48.4944L42.6666 11.4222Z" fill="black"/>
</svg>
