<svg width="22" height="22" viewBox="0 0 22 22" fill="none" xmlns="http://www.w3.org/2000/svg">
<circle cx="11" cy="11" r="10.15" stroke="#673AB7" stroke-width="1.7"/>
<path d="M12.25 8.54688V17H9.99219V8.54688H12.25ZM9.85156 6.34375C9.85156 6.01562 9.96615 5.74479 10.1953 5.53125C10.4245 5.31771 10.7318 5.21094 11.1172 5.21094C11.4974 5.21094 11.8021 5.31771 12.0312 5.53125C12.2656 5.74479 12.3828 6.01562 12.3828 6.34375C12.3828 6.67188 12.2656 6.94271 12.0312 7.15625C11.8021 7.36979 11.4974 7.47656 11.1172 7.47656C10.7318 7.47656 10.4245 7.36979 10.1953 7.15625C9.96615 6.94271 9.85156 6.67188 9.85156 6.34375Z" fill="black"/>
</svg>
