<svg width="25" height="25" viewBox="0 0 25 25" fill="none" xmlns="http://www.w3.org/2000/svg">
<path d="M7.50513 8.37405L11.5041 4.07229V17.0264C11.5041 17.5781 11.9485 18.0225 12.5002 18.0225C13.052 18.0225 13.4963 17.5781 13.4963 17.0264V4.07229L17.4954 8.37405C17.8713 8.77932 18.5012 8.79885 18.9065 8.42776C19.3118 8.05178 19.3313 7.4219 18.9602 7.01662L13.2327 0.854515C12.6711 0.288109 11.9827 0.600609 11.7727 0.854515L6.04517 7.01662C5.66919 7.4219 5.6936 8.05178 6.09888 8.42776C6.49927 8.79885 7.12915 8.77932 7.50513 8.37405Z" fill="black"/>
<path d="M23.4668 16.6602C22.915 16.6602 22.4707 17.1045 22.4707 17.6562V22.4609H2.5293V17.6562C2.5293 17.1045 2.08496 16.6602 1.5332 16.6602C0.981445 16.6602 0.537109 17.1094 0.537109 17.6562V23.457C0.537109 24.0088 0.981445 24.4531 1.5332 24.4531H23.4668C24.0186 24.4531 24.4629 24.0088 24.4629 23.457V17.6562C24.4629 17.1094 24.0186 16.6602 23.4668 16.6602Z" fill="black"/>
</svg>
