<?xml version="1.0" encoding="UTF-8"?> <svg xmlns="http://www.w3.org/2000/svg" width="463.311" height="134" viewBox="0 0 463.311 134"><g id="Merlot_Title" transform="translate(-1543.689 -466)"><path id="Pfad_129" data-name="Pfad 129" d="M59.5,0,119,108H0Z" transform="translate(1833 492)" fill="#ff525a"></path><path id="Pfad_130" data-name="Pfad 130" d="M24,0,48,44H0Z" transform="translate(2007 510) rotate(180)" fill="#724e91"></path><path id="Pfad_128" data-name="Pfad 128" d="M19.482-41.7V0H6.689V-68.8H25.977l12.3,38.477q.83,3.223,1.709,6.47t1.709,6.47q.537-1.855,1.025-3.687t1-3.687q.513-1.855,1.05-3.662L57.422-68.8H76.611V0H63.818V-41.7q0-1.416.122-5.688t.366-9.3q-1.709,6.543-3,11.133T59.18-38.379L46.777,0H36.523l-12.4-38.379L18.9-56.689q.293,5.664.439,9.4T19.482-41.7ZM146.094-11.133V0H89.99V-68.8h54.1v11.133h-39.7v17.285h36.719v11.133H104.395v18.115Zm25-14.99V0h-14.4V-68.8h34.375q12.3,0,18.994,5.3t6.689,15.21a19.658,19.658,0,0,1-4.1,12.476,19.23,19.23,0,0,1-11.084,6.909L220.166,0H203.955L187.988-26.123Zm31.152-21.582q0-4.932-3.174-7.422t-9.521-2.49H171.094V-37.3h18.848q6.055,0,9.18-2.734A9.647,9.647,0,0,0,202.246-47.705Zm77.979,36.572V0H228.906V-68.8h14.4v57.666Zm76.66-23.584a39.041,39.041,0,0,1-4.321,18.774A30.837,30.837,0,0,1,340.405-3.467,36.649,36.649,0,0,1,322.021.977q-10.791,0-18.555-4.321a29.128,29.128,0,0,1-11.914-12.329q-4.15-8.008-4.15-19.043t4.126-18.9a28.248,28.248,0,0,1,11.914-12.036q7.788-4.175,18.677-4.175,10.937,0,18.7,4.224a28.727,28.727,0,0,1,11.914,12.085Q356.885-45.654,356.885-34.717Zm-14.7,0q0-11.133-5.273-17.456T322.119-58.5q-9.668,0-14.941,6.274t-5.273,17.5a31.673,31.673,0,0,0,2.441,12.988,19.027,19.027,0,0,0,6.958,8.423,19.139,19.139,0,0,0,10.718,2.954q9.668,0,14.917-6.348T342.188-34.717Zm56.641-22.949V0h-14.4V-57.666H362.207V-68.8h58.887v11.133Z" transform="translate(1537 579)"></path></g></svg> 